<?xml version="1.0" encoding="UTF-8"?>
<svg id="Layer_1" data-name="Layer 1" xmlns="http://www.w3.org/2000/svg" viewBox="0 0 1235.96 316.33">
  <defs>
    <style>
      .cls-1 {
        fill: none;
      }

      .cls-1, .cls-2 {
        stroke-width: 0px;
      }

      .cls-2, .cls-3 {
        fill: #fff;
      }

      .cls-3 {
        font-family: Poppins-Regular, Poppins;
        font-size: 198.66px;
        letter-spacing: -.05em;
        stroke: #fff;
        stroke-miterlimit: 10;
        stroke-width: 3px;
      }
    </style>
  </defs>
  <g>
    <path class="cls-1" d="M168.28,217.81c18.33,8.9,35.92,17.55,53.62,25.97,8.3,3.95,16.74,7.67,25.28,11.08,4.84,1.93,9.44.93,13.04-3.29,3.43-4.02,3.6-8.29,1.24-12.8-2.23-4.25-4.33-8.6-6.87-12.67-11.25-18.01-22.65-35.94-33.98-53.9-1.56-2.47-3.06-4.97-4.68-7.6,3.71-2.58,6.83-4.75,9.96-6.9,18.84-12.93,37.74-25.76,56.48-38.83,5.61-3.91,11.49-8.15,8.73-16.6-2.86-8.75-10.39-8.5-17.38-8.36-16.44.33-32.86,1.21-49.3,1.61-10.15.25-20.31.05-31.03.05-1.12-15.21-2.19-30.98-3.48-46.73-1.02-12.38-2.27-24.74-3.51-37.1-.6-5.95-3.4-10.2-9.64-11.47-5.8-1.18-9.59,1.73-12.53,6.25-1.53,2.35-3.09,4.69-4.42,7.16-5.78,10.76-11.49,21.56-17.2,32.36-6.34,11.98-12.67,23.97-19.13,36.2-17.01-8.25-33.33-16.32-49.79-24.09-9.76-4.61-19.7-8.86-29.65-13.06-4.56-1.93-8.61-.55-11.98,3.02-3.4,3.59-4.21,7.64-2.19,12.16,1.14,2.55,2.24,5.16,3.71,7.54,8.21,13.3,16.52,26.53,24.81,39.78,5.79,9.25,11.61,18.49,17.57,27.98-10.04,6.82-19.54,13.15-28.91,19.66-13.99,9.72-27.96,19.46-41.78,29.41-4.36,3.14-6.46,7.58-4.6,13.19,1.93,5.83,6.25,8.12,12,8.04,13.63-.19,27.25-.62,40.88-.75,14.78-.14,29.55-.03,44.91-.03.7,9.38,1.41,19.94,2.3,30.49,1.46,17.37,2.97,34.74,4.57,52.1.53,5.77,2.74,10.5,9.07,11.97,6.89,1.6,11.09-2.11,14.18-7.52,4.86-8.52,9.64-17.09,14.24-25.76,8.44-15.89,16.73-31.87,25.46-48.53Z"/>
    <path class="cls-2" d="M168.28,217.81c-8.73,16.66-17.01,32.64-25.46,48.53-4.6,8.66-9.39,17.23-14.24,25.76-3.09,5.41-7.28,9.12-14.18,7.52-6.33-1.47-8.54-6.2-9.07-11.97-1.6-17.36-3.11-34.72-4.57-52.1-.88-10.55-1.6-21.11-2.3-30.49-15.35,0-30.13-.1-44.91.03-13.63.12-27.25.56-40.88.75-5.75.08-10.07-2.22-12-8.04-1.86-5.62.24-10.05,4.6-13.19,13.82-9.96,27.79-19.7,41.78-29.41,9.37-6.51,18.86-12.84,28.91-19.66-5.96-9.49-11.78-18.72-17.57-27.98-8.29-13.25-16.6-26.48-24.81-39.78-1.46-2.37-2.56-4.98-3.71-7.54-2.03-4.52-1.21-8.57,2.19-12.16,3.37-3.56,7.42-4.94,11.98-3.02,9.95,4.2,19.88,8.45,29.65,13.06,16.46,7.77,32.78,15.84,49.79,24.09,6.46-12.22,12.78-24.21,19.13-36.2,5.72-10.8,11.42-21.6,17.2-32.36,1.32-2.47,2.88-4.81,4.42-7.16,2.95-4.52,6.73-7.43,12.53-6.25,6.25,1.27,9.05,5.52,9.64,11.47,1.24,12.36,2.49,24.72,3.51,37.1,1.29,15.75,2.36,31.53,3.48,46.73,10.72,0,20.88.2,31.03-.05,16.44-.41,32.86-1.28,49.3-1.61,6.99-.14,14.52-.39,17.38,8.36,2.76,8.45-3.12,12.69-8.73,16.6-18.74,13.07-37.65,25.9-56.48,38.83-3.13,2.15-6.24,4.33-9.96,6.9,1.62,2.63,3.13,5.14,4.68,7.6,11.33,17.96,22.73,35.89,33.98,53.9,2.54,4.07,4.64,8.41,6.87,12.67,2.36,4.51,2.19,8.78-1.24,12.8-3.6,4.22-8.19,5.22-13.04,3.29-8.54-3.41-16.97-7.12-25.28-11.08-17.7-8.42-35.29-17.08-53.62-25.97ZM171.19,121.73c-1.68-22.48-3.3-44.3-4.93-66.12-.46-.07-.93-.14-1.39-.22-10.22,19.42-20.45,38.85-30.84,58.59-20.17-9.72-40.08-19.31-59.99-28.9-.27.3-.53.61-.8.91,11.78,18.67,23.55,37.34,35.52,56.32-18.69,12.73-36.92,25.14-55.14,37.56.17.35.35.7.52,1.05,21.97-.84,43.94-1.68,66.51-2.54,1.66,22.34,3.28,44.21,4.91,66.08.45.1.89.2,1.34.31,10.28-19.52,20.57-39.03,30.93-58.7,20.41,9.84,40.29,19.43,60.18,29.02.22-.3.44-.6.66-.91-11.8-18.7-23.59-37.41-35.59-56.43,18.75-12.78,36.97-25.19,55.18-37.6-.19-.36-.38-.72-.57-1.08-21.98.88-43.95,1.76-66.49,2.66Z"/>
  </g>
  <text class="cls-3" transform="translate(365.07 201.2) scale(.98 1)"><tspan x="0" y="0">navigator</tspan></text>
</svg>